<?xml version="1.0" encoding="utf-8"?>
<!-- Generator: Adobe Illustrator 26.0.0, SVG Export Plug-In . SVG Version: 6.00 Build 0)  -->
<svg version="1.1" id="Objects" xmlns="http://www.w3.org/2000/svg" xmlns:xlink="http://www.w3.org/1999/xlink" x="0px" y="0px"
	 viewBox="0 0 293.8 276.5" style="enable-background:new 0 0 293.8 276.5;" xml:space="preserve">
<style type="text/css">
	.st0{fill:url(#SVGID_1_);}
	.st1{fill:url(#SVGID_00000022536689629256372570000014309533396149559961_);}
	.st2{fill:url(#SVGID_00000102536465616982488700000007577192193832809902_);}
</style>
<linearGradient id="SVGID_1_" gradientUnits="userSpaceOnUse" x1="-24.0758" y1="244.1965" x2="476.9242" y2="-96.8035">
	<stop  offset="0" style="stop-color:#FFFFFF"/>
	<stop  offset="1" style="stop-color:#000000"/>
</linearGradient>
<path class="st0" d="M146.9,190c-2.7-1.6-5.1-3.7-7.1-6.1c-0.7-0.1-1.3-0.2-2-0.4l-11.9,28.3l-38.3-88.3
	C74.5,97.1,51.2,90.1,20.3,86.8l73.2,162.7H155c0,0,6.4-13.6,15.4-32.9C157.7,213.7,148.2,203,146.9,190z"/>
<linearGradient id="SVGID_00000040569553071637724390000012771469695520182167_" gradientUnits="userSpaceOnUse" x1="2.6041" y1="283.3949" x2="503.6041" y2="-57.6051">
	<stop  offset="0" style="stop-color:#FFFFFF"/>
	<stop  offset="1" style="stop-color:#000000"/>
</linearGradient>
<path style="fill:url(#SVGID_00000040569553071637724390000012771469695520182167_);" d="M206.1,159.7c2.6,3.1,3.7,7.2,3,11.2
	c-2.2-8.8-7.7-14.3-16.5-16.5c3.5-0.5,7,0.3,10,2.2c-0.8-1.5-1.5-3-2.1-4.4c-4.5-10.1-4.6-21.5-0.5-31.7l-11.9-4.9
	c-6,14.5-18.5,21-29.7,23.9c3.3,1.3,6.1,3.9,7.5,7.1c-6.8-6-14.4-7.5-22.9-4.4c3.1-2.8,7.4-4.2,11.6-3.7c-8.6-5.9-20.4-3.8-26.3,4.8
	s-3.8,20.4,4.8,26.3c2.7,1.9,5.9,3,9.3,3.3c0.5,0,1,0.1,1.5,0.1c0.7,0,1.4,0,2.1-0.1c2.2,4.4,6.1,7.7,10.7,9.4
	c-1.8-2.9-2.4-6.3-1.9-9.6c2.2,8.8,7.7,14.3,16.5,16.5c-4.9,0.7-9.7-1.1-13-4.8c-0.1,0.9-0.2,1.8-0.2,2.7c0,9.9,7.6,18.1,17.4,18.9
	c0.5,0,1,0.1,1.6,0.1c7.8,0,14.7-4.8,17.6-12c8.5,6,20.4,4,26.4-4.6c6-8.5,4-20.4-4.6-26.4C213.3,161,209.7,159.8,206.1,159.7
	L206.1,159.7z M168.4,176.1c-7.6-5.7-8-17.7,0-23.3C163.8,160.6,163.7,168.3,168.4,176.1z"/>
<linearGradient id="SVGID_00000100361820029133685370000015187886016991400629_" gradientUnits="userSpaceOnUse" x1="-25.4497" y1="242.178" x2="475.5503" y2="-98.822">
	<stop  offset="0" style="stop-color:#FFFFFF"/>
	<stop  offset="1" style="stop-color:#000000"/>
</linearGradient>
<path style="fill:url(#SVGID_00000100361820029133685370000015187886016991400629_);" d="M238.4,18.1c-1-2.4-3.7-3.5-6.1-2.5
	c-15.5,6.4-30.1,13.2-39.3,26.6c-4.8,7.2-8,15.4-9.5,23.9c-10.5,5.1-20.8,26.1-20.8,26.1s6.2,1.9,12,3.5c2.7,0.8,5.3,1.4,8.1,1.9
	c0.4,3.2,0.9,6.2,1.5,9c0.3,1.5,1.4,2.7,2.8,3.3l16.5,6.8c1.1,0.5,2.4,0.5,3.6,0c0.2-0.1,5.6-3.7,8.2-5.6c0.8,0.6,1.8,1.3,3.1,2.1
	c5.7,3.5,14.9,8.4,14.9,8.4s7.5-22.2,3.7-33.2c5-7.1,8.5-15.1,10.2-23.6C250.3,48.8,244.5,33,238.4,18.1z M218.2,66.6
	c-4.8,0-8.7-4-8.7-8.8s4-8.7,8.8-8.7c4.8,0,8.7,3.9,8.7,8.7C227,62.7,223.1,66.6,218.2,66.6C218.3,66.6,218.3,66.6,218.2,66.6z"/>
</svg>
